<?xml version="1.0" standalone="no"?>
<!DOCTYPE svg PUBLIC "-//W3C//DTD SVG 20010904//EN"
 "http://www.w3.org/TR/2001/REC-SVG-20010904/DTD/svg10.dtd">
<svg version="1.0" xmlns="http://www.w3.org/2000/svg"
 width="16pt" height="16.000000pt" viewBox="0 0 16.000000 16.000000"
 preserveAspectRatio="xMidYMid meet">

<g transform="translate(0.000000,16.000000) scale(0.100000,-0.100000)"
fill="#000000" stroke="none">
<path d="M93 268 c-27 -13 -32 -34 -5 -22 35 15 101 16 131 1 17 -9 33 -11 36
-7 10 15 -52 40 -97 39 -24 0 -53 -5 -65 -11z"/>
<path d="M113 228 c-13 -6 -23 -15 -23 -20 0 -5 9 -4 19 2 11 5 34 10 51 10
17 0 40 -5 51 -10 11 -6 19 -7 19 -1 0 10 -54 31 -79 30 -9 0 -26 -5 -38 -11z"/>
<path d="M124 184 c-19 -15 -19 -16 1 -8 25 9 45 9 70 0 20 -8 20 -7 1 8 -11
9 -27 16 -36 16 -9 0 -25 -7 -36 -16z"/>
<path d="M151 156 c-9 -10 -8 -16 3 -25 10 -9 16 -8 25 3 9 10 8 16 -3 25 -10
9 -16 8 -25 -3z"/>
</g>
</svg>
